<svg version="1.1" id="Layer_1" xmlns="http://www.w3.org/2000/svg" xmlns:xlink="http://www.w3.org/1999/xlink" x="0px" y="0px"
	 width="100%" viewBox="0 0 938 563" enable-background="new 0 0 938 563" xml:space="preserve">
<path fill="#12111F" opacity="1.000000" stroke="none" 
	d="
M603.000000,564.000000 
	C402.000000,564.000000 201.500000,564.000000 1.000000,564.000000 
	C1.000000,376.333344 1.000000,188.666672 1.000000,1.000000 
	C313.666656,1.000000 626.333313,1.000000 939.000000,1.000000 
	C939.000000,188.666672 939.000000,376.333344 939.000000,564.000000 
	C827.166687,564.000000 715.333313,564.000000 603.000000,564.000000 
M498.158356,529.488037 
	C498.353455,529.792480 498.631470,529.955566 498.993683,530.009766 
	C498.993683,530.009766 499.025665,530.003601 499.394348,530.601624 
	C503.005127,532.735046 506.681396,533.611938 510.816711,531.201599 
	C510.816711,531.201599 511.015533,530.994202 511.606720,530.922791 
	C512.014221,529.918823 512.421753,528.914917 512.829285,527.910950 
	C511.312622,527.939331 509.795959,527.967712 507.519775,527.929260 
	C503.392151,529.158997 501.573303,526.899048 500.739349,523.338562 
	C499.325378,517.301697 502.901123,513.830505 509.038391,514.918030 
	C510.483887,515.174133 512.120850,514.349365 514.869019,513.768311 
	C507.981018,509.015015 504.205200,509.090942 498.363281,513.162476 
	C497.810028,514.059509 497.256775,514.956604 496.802399,515.849548 
	C496.802399,515.849548 496.748230,515.766785 496.298431,516.033752 
	C496.121887,516.678894 495.945374,517.323975 495.353699,518.593079 
	C495.316223,519.086426 495.278778,519.579773 495.041931,520.770752 
	C495.116180,521.484680 495.190430,522.198669 495.235535,523.669250 
	C495.441559,524.123047 495.647614,524.576904 495.770294,525.531067 
	C496.111877,526.087219 496.453491,526.643433 496.849762,527.116089 
	C496.849762,527.116089 496.750061,527.120789 496.831635,527.713623 
	C497.217133,528.139648 497.602661,528.565735 497.994141,529.004883 
	C497.994141,529.004883 498.006317,529.012878 498.158356,529.488037 
M325.302124,412.795502 
	C338.784119,388.749786 322.062225,359.404449 294.509430,359.036560 
	C276.689758,358.798645 258.864380,358.982452 241.041611,359.005920 
	C240.114975,359.007141 239.188705,359.277222 237.940582,359.472473 
	C237.940582,365.158936 237.940582,370.589661 237.940582,376.415924 
	C232.150940,376.415924 226.722977,376.415924 221.220459,376.415924 
	C221.220459,389.036346 221.220459,401.246033 221.220459,413.877655 
	C226.969681,413.877655 232.390564,413.877655 237.796814,413.877655 
	C237.796814,416.193146 237.796814,418.075348 237.796814,420.350281 
	C232.045486,420.350281 226.621445,420.350281 221.165314,420.350281 
	C221.165314,432.993591 221.165314,445.234985 221.165314,458.043457 
	C226.982254,458.043457 232.533585,458.043457 238.428009,458.043457 
	C238.428009,464.038818 238.428009,469.463745 238.428009,475.077789 
	C257.117188,475.077789 275.434387,475.295258 293.744507,475.027679 
	C322.449646,474.608246 339.178955,444.839661 324.668823,420.014282 
	C323.087280,417.308411 323.333557,415.573761 325.302124,412.795502 
M477.873779,446.638062 
	C484.013184,456.715942 491.750397,464.753693 503.628082,468.076111 
	C506.584717,468.903137 508.958954,471.768799 511.913483,472.653961 
	C534.289124,479.357666 559.339600,471.551208 574.004333,453.330688 
	C581.684021,443.788910 585.952820,432.903442 586.141968,420.087341 
	C580.164917,420.087341 574.731140,420.087341 569.300537,420.087341 
	C569.300537,417.671417 569.300537,415.641602 569.300537,413.272888 
	C575.092590,413.272888 580.538574,413.272888 585.974304,413.272888 
	C585.950989,387.125397 557.137085,355.850708 523.635071,358.779449 
	C495.809814,361.211914 467.457825,389.239716 470.564270,413.563721 
	C475.936340,413.563721 481.370575,413.563721 486.999023,413.563721 
	C486.999023,415.882233 486.999023,417.794647 486.999023,420.345215 
	C481.302124,420.345215 475.751770,420.345215 469.919312,420.345215 
	C470.311462,430.005798 473.239655,438.202393 477.873779,446.638062 
M690.899292,413.533386 
	C690.899292,430.308655 690.899292,447.083893 690.899292,464.134705 
	C682.252380,464.134705 674.113831,464.369141 665.993164,464.087494 
	C647.078552,463.431488 630.178406,450.596741 623.973999,432.481354 
	C617.668762,414.071716 623.347839,393.646790 637.593872,381.126648 
	C653.298340,367.324768 672.020081,369.593903 690.657471,369.886749 
	C690.657471,372.219299 690.657471,374.140594 690.657471,376.904510 
	C681.806702,376.904510 673.155701,376.430420 664.575134,377.005920 
	C648.107971,378.110352 634.057800,390.093567 629.650818,406.036804 
	C625.063049,422.634155 631.192017,439.938812 644.926086,449.797943 
	C657.517883,458.837128 671.742249,457.846497 686.019287,457.348083 
	C686.019287,453.617920 686.019287,450.369995 686.019287,446.837463 
	C680.246948,446.837463 674.756531,446.986267 669.276550,446.810120 
	C651.367920,446.234467 638.688904,433.517914 638.888000,416.472443 
	C639.082703,399.802673 652.069458,387.390564 669.741699,387.109283 
	C677.402649,386.987335 685.067078,387.085754 692.729919,387.084412 
	C695.646667,387.083893 698.563416,387.084320 700.945618,387.084320 
	C700.945618,377.521027 700.945618,368.727814 700.945618,359.879944 
	C686.410461,359.879944 672.466797,358.520813 658.886963,360.165771 
	C631.482544,363.485352 610.921265,388.421082 610.637329,416.548706 
	C610.352478,444.770874 630.802551,470.210785 658.386169,473.852295 
	C672.308228,475.690277 686.609924,474.654785 700.740479,474.888153 
	C700.980164,474.892120 701.226257,474.511505 701.941650,473.919556 
	C701.941650,468.719971 701.941650,463.129486 701.941650,457.237183 
	C707.881104,457.237183 713.343506,457.237183 718.894226,457.237183 
	C718.894226,438.968048 718.894226,421.034790 718.894226,402.966187 
	C709.535889,402.966187 700.401794,402.966187 690.899292,402.966187 
	C690.899292,406.264221 690.899292,409.405945 690.899292,413.533386 
M358.798035,457.621674 
	C363.220703,457.621674 367.643341,457.621674 372.428772,457.621674 
	C372.428772,463.751404 372.428772,469.192871 372.428772,474.780853 
	C402.180573,474.780853 431.553253,474.780853 460.848206,474.780853 
	C460.848206,465.404083 460.848206,456.327423 460.848206,447.368256 
	C436.297089,447.368256 412.055634,447.368256 387.854431,447.368256 
	C387.854431,450.928955 387.854431,454.151672 387.854431,457.819702 
	C409.023651,457.819702 429.795929,457.819702 450.543823,457.819702 
	C450.543823,460.193054 450.543823,462.099396 450.543823,464.242188 
	C427.985565,464.242188 405.724030,464.242188 382.998840,464.242188 
	C382.998840,429.240356 382.998840,394.326385 382.998840,359.201294 
	C373.472961,359.201294 364.410339,359.201294 355.003510,359.201294 
	C355.003510,372.912994 355.005127,386.375641 355.003143,399.838287 
	C355.000488,417.670227 354.982422,435.502228 355.008331,453.334106 
	C355.011200,455.314087 354.138153,458.043640 358.798035,457.621674 
M462.050812,105.500000 
	C462.050903,166.643661 462.046295,227.787338 462.070496,288.931000 
	C462.071350,291.080017 462.090576,293.290741 462.569946,295.364349 
	C463.432373,299.094635 466.120911,300.892639 469.867676,300.940308 
	C473.610168,300.988007 476.374359,299.277100 477.292633,295.557831 
	C477.841400,293.335510 477.919464,290.954926 477.920319,288.645386 
	C477.950592,207.176147 477.946686,125.706917 477.946320,44.237682 
	C477.946289,43.071564 477.997589,41.900307 477.909454,40.740223 
	C477.529816,35.743942 474.616699,32.772331 470.105804,32.720570 
	C465.575684,32.668591 462.522736,35.614017 462.100281,40.525887 
	C461.986420,41.849731 462.052887,43.189903 462.052734,44.522579 
	C462.050507,64.515053 462.050964,84.507523 462.050812,105.500000 
M517.280029,103.500061 
	C517.256409,95.509148 517.380127,87.514008 517.151428,79.528969 
	C517.023376,75.057228 513.550354,71.875023 509.380859,72.127365 
	C504.999146,72.392563 502.335938,74.806900 501.774780,79.262962 
	C501.629883,80.413658 501.648834,81.589203 501.649078,82.753326 
	C501.659760,138.860077 501.675385,194.966812 501.700256,251.073563 
	C501.700836,252.402649 501.644745,253.765396 501.903595,255.054520 
	C502.733856,259.189606 505.359772,261.588074 509.561157,261.478577 
	C513.687622,261.371033 516.430908,259.056946 517.030945,254.827271 
	C517.332886,252.698837 517.256226,250.508850 517.256958,248.346680 
	C517.272644,200.397812 517.275208,152.448944 517.280029,103.500061 
M426.880371,260.654205 
	C434.571960,262.548615 438.324585,259.726135 438.330597,251.691925 
	C438.372925,195.050964 438.355774,138.409973 438.338135,81.768990 
	C438.337738,80.445068 438.322571,79.056877 437.946808,77.809349 
	C436.797791,73.994324 434.058105,71.938835 430.123444,72.167603 
	C426.248840,72.392868 423.559906,74.519905 422.927765,78.545052 
	C422.645905,80.339890 422.727356,82.199417 422.726562,84.029617 
	C422.715546,109.351471 422.718384,134.673325 422.718811,159.995178 
	C422.719299,190.314774 422.730225,220.634354 422.709076,250.953934 
	C422.706573,254.529175 422.727844,258.029327 426.880371,260.654205 
M541.029114,170.500000 
	C541.037292,178.993500 541.049438,187.486984 541.052307,195.980484 
	C541.054199,201.642700 540.939392,207.307251 541.066833,212.966476 
	C541.192200,218.536545 544.349182,222.008484 548.970886,221.998871 
	C553.724609,221.988983 556.747559,218.601746 556.936218,213.058273 
	C556.964539,212.226532 556.941650,211.393021 556.941711,210.560333 
	C556.943604,182.082199 556.947449,153.604080 556.943115,125.125946 
	C556.942810,122.961990 557.134216,120.758591 556.800232,118.642372 
	C556.118042,114.320015 553.441101,111.666595 549.027466,111.638634 
	C544.610840,111.610664 541.961792,114.242531 541.165649,118.549316 
	C540.896851,120.003433 541.034485,121.537842 541.033813,123.035583 
	C541.026672,138.523727 541.029236,154.011856 541.029114,170.500000 
M383.054138,184.500000 
	C383.061279,194.328064 382.947174,204.158371 383.127197,213.983261 
	C383.215820,218.819336 386.568146,221.977509 390.956451,222.008911 
	C395.342377,222.040298 398.553345,218.879791 398.925842,214.090912 
	C399.028931,212.765686 398.966217,211.426941 398.966339,210.094406 
	C398.968872,181.109741 398.972107,152.125092 398.963806,123.140427 
	C398.963348,121.477272 399.115234,119.759415 398.764587,118.161743 
	C397.876648,114.116013 395.259460,111.663956 391.068115,111.629807 
	C386.867188,111.595573 384.233643,114.038406 383.285248,118.057770 
	C382.910553,119.645638 383.062531,121.369835 383.061523,123.032013 
	C383.049683,143.188004 383.054047,163.343994 383.054138,184.500000 
M358.365753,178.554611 
	C358.711731,172.139877 359.310791,165.725586 359.321838,159.310287 
	C359.330292,154.385010 356.070587,151.196945 351.807312,151.046646 
	C347.300842,150.887772 343.911682,154.087479 343.650757,159.234192 
	C343.407501,164.033127 343.534180,168.853943 343.591370,173.664017 
	C343.635956,177.413559 344.917175,180.535583 348.693481,181.989410 
	C352.445557,183.433884 355.488342,182.224762 358.365753,178.554611 
M580.810303,158.561981 
	C580.752258,163.860474 580.505554,169.165619 580.691467,174.455536 
	C580.863403,179.349243 584.093384,182.549942 588.331909,182.615601 
	C592.602417,182.681763 595.976379,179.580276 596.256470,174.730194 
	C596.552185,169.610016 596.510132,164.458344 596.359619,159.327942 
	C596.227112,154.812653 593.929504,151.583084 589.282288,151.155731 
	C584.747559,150.738693 581.718567,153.024292 580.810303,158.561981 
M272.866974,516.674744 
	C272.866425,515.842896 273.129028,514.888062 272.809937,514.205017 
	C272.166687,512.828125 271.207001,511.598999 270.377869,510.308929 
	C269.611145,511.660156 268.395813,512.943298 268.178192,514.377869 
	C267.811462,516.795227 268.077698,519.308716 268.077698,521.781738 
	C264.046356,518.610901 261.469116,515.154541 258.584503,511.977234 
	C257.741852,511.049011 256.023773,510.915436 254.706970,510.417633 
	C254.281631,511.574127 253.520844,512.721497 253.489182,513.888672 
	C253.353867,518.876160 253.506439,523.870850 253.410080,528.860168 
	C253.343796,532.292175 254.861130,532.908081 258.274994,531.480286 
	C258.274994,528.090332 258.274994,524.540894 258.274994,520.593506 
	C264.320160,523.304077 264.853699,532.012268 272.866547,532.114990 
	C272.866547,526.891724 272.866547,522.259399 272.866974,516.674744 
M543.884888,520.662109 
	C542.467590,514.040588 539.723206,511.049438 534.291565,510.206299 
	C529.471924,509.458160 524.634705,511.691101 522.474487,515.796631 
	C520.158447,520.198181 520.516479,524.544128 523.577393,528.388733 
	C526.683655,532.290344 530.982544,533.265625 535.693298,532.033936 
	C541.052612,530.632568 543.488953,526.796448 543.884888,520.662109 
M355.148987,527.059998 
	C356.955048,530.162415 358.368134,533.970764 363.650604,531.484802 
	C362.011810,528.703796 360.437592,526.032410 358.786377,523.230286 
	C361.508667,520.362000 363.803314,517.031067 361.016815,513.468994 
	C357.240662,508.641876 351.731537,510.524536 346.410706,510.394196 
	C346.410706,517.785095 346.410706,524.686951 346.410706,531.874207 
	C348.037384,531.874207 349.549225,531.874207 351.390717,531.874207 
	C351.390717,529.989868 351.225494,528.484558 351.424530,527.029053 
	C351.861359,523.834656 353.224640,524.401978 355.148987,527.059998 
M574.716064,510.230927 
	C573.146118,511.412506 571.152222,512.303223 570.098633,513.839050 
	C568.189331,516.622192 566.840393,519.789856 564.768738,523.725525 
	C562.730774,519.838928 561.162476,517.121338 559.855591,514.283447 
	C558.361633,511.039398 556.550049,508.918213 552.325256,511.136322 
	C552.325256,517.253967 552.148682,523.403687 552.483093,529.525574 
	C552.545593,530.668396 554.657593,531.699219 555.823792,532.781738 
	C556.341187,532.413818 556.858582,532.045898 557.375977,531.677979 
	C557.375977,528.189697 557.375977,524.701355 557.375977,521.213074 
	C559.515808,523.251221 560.573242,525.490234 561.856262,527.591492 
	C563.877930,530.902588 565.686951,530.900085 567.707153,527.615479 
	C568.966614,525.567627 570.048218,523.410278 571.504456,520.767151 
	C574.189087,532.191772 574.189087,532.191772 577.113770,531.390503 
	C577.113770,525.460022 577.190918,519.467712 577.042603,513.480957 
	C577.015991,512.406982 576.058899,511.355988 574.716064,510.230927 
M696.414978,514.475464 
	C697.081604,514.471619 697.840637,514.672302 698.395691,514.421509 
	C699.565979,513.892700 700.629395,513.127502 701.736694,512.459290 
	C700.541199,511.697479 699.394592,510.390961 698.140869,510.278625 
	C694.733887,509.973419 691.281677,510.173859 687.736877,510.173859 
	C687.736877,517.974976 687.736877,525.004822 687.736877,532.382996 
	C691.821106,532.382996 695.475769,532.524597 699.105164,532.284058 
	C700.021545,532.223328 700.856934,530.941101 701.729553,530.220154 
	C700.810486,529.523132 699.968994,528.656555 698.945312,528.188171 
	C698.253967,527.871948 697.304688,528.085510 696.472778,528.116211 
	C692.734863,528.253967 692.300354,526.483704 693.582153,523.544922 
	C694.296509,523.423401 694.818054,523.425781 695.262817,523.242188 
	C696.734436,522.634766 698.178345,521.960266 699.632874,521.311462 
	C698.244385,520.574585 696.828430,519.884155 695.477295,519.084167 
	C694.597168,518.562927 693.811401,517.882141 692.983398,517.272827 
	C693.833252,516.346008 694.683167,515.419189 696.414978,514.475464 
M638.264893,531.507812 
	C639.758789,531.733704 641.252686,531.959534 642.790833,532.192078 
	C643.096680,529.178162 643.332642,526.852539 643.588684,524.329529 
	C648.611206,525.727539 647.878845,534.911316 655.427185,531.433777 
	C653.762573,528.597534 652.198547,525.932617 650.634521,523.267700 
	C651.157349,523.263062 651.680115,523.258423 652.202942,523.253784 
	C652.521118,520.097778 654.190796,516.144226 652.891663,513.942505 
	C649.628479,508.412415 643.669861,510.585175 638.058105,510.427460 
	C638.058105,517.504700 638.058105,524.095520 638.264893,531.507812 
M428.113800,515.535950 
	C430.321960,515.152527 432.559753,514.883789 434.722260,514.324036 
	C435.485992,514.126404 436.704315,513.044373 436.602173,512.668518 
	C436.357422,511.767822 435.494598,510.406036 434.806793,510.360718 
	C431.323639,510.131439 427.811188,510.163666 424.322998,510.356750 
	C423.671814,510.392761 422.562073,511.570496 422.548431,512.239319 
	C422.414459,518.821533 422.467560,525.407532 422.467560,532.326477 
	C426.912506,532.326477 430.565094,532.471924 434.190460,532.222351 
	C435.077911,532.161316 435.876343,530.807312 436.715759,530.047791 
	C435.907104,529.421265 435.158051,528.379944 434.277527,528.253418 
	C432.359955,527.977783 430.375397,528.168274 428.442322,528.168274 
	C427.533295,524.976440 427.520386,523.088196 431.160339,523.051636 
	C432.320770,523.040039 433.470306,521.936523 434.624847,521.332703 
	C433.404633,520.604187 432.124756,519.957458 430.981384,519.123596 
	C429.884857,518.323853 428.929962,517.329895 428.113800,515.535950 
M372.699829,532.258728 
	C374.029083,531.533142 375.783539,531.125793 376.608978,530.023010 
	C379.240051,526.508240 384.128235,526.369812 386.699341,529.689636 
	C387.758179,531.056824 389.733795,531.713928 391.292419,532.693970 
	C391.667053,532.217163 392.041718,531.740295 392.416351,531.263489 
	C390.095093,525.264526 387.908447,519.207031 385.348297,513.311829 
	C384.780548,512.004395 382.871277,510.459503 381.621979,510.495392 
	C380.335999,510.532318 378.539490,512.118042 377.944305,513.459839 
	C375.659454,518.610901 373.712921,523.916321 371.783966,529.216431 
	C371.477020,530.059814 371.907257,531.171387 372.699829,532.258728 
M613.406311,517.837524 
	C611.675476,522.429199 609.944702,527.020874 608.213867,531.612549 
	C608.534729,531.979370 608.855652,532.346191 609.176514,532.713013 
	C610.731018,531.946838 612.765442,531.567749 613.752380,530.343933 
	C617.052063,526.252197 620.971924,526.270630 624.258423,530.332153 
	C625.249756,531.557312 627.444214,531.808838 629.087524,532.506409 
	C627.429932,525.275146 625.270325,519.196777 622.721985,513.286072 
	C622.158081,511.978180 620.199524,510.466034 618.919617,510.498199 
	C617.629395,510.530640 616.183533,512.207703 615.183899,513.464844 
	C614.398987,514.451904 614.190186,515.897095 613.406311,517.837524 
M304.981415,529.844238 
	C306.300049,530.819031 307.618652,531.793884 309.705353,533.336487 
	C310.014740,529.628845 310.188568,527.545837 310.376251,525.296936 
	C312.084381,525.127747 313.561859,525.100098 314.988831,524.817505 
	C319.044678,524.014282 321.586304,521.722229 321.465607,517.353699 
	C321.350983,513.204651 318.857849,510.952362 314.919281,510.589447 
	C311.726044,510.295197 308.484100,510.529694 304.969025,510.529694 
	C304.969025,517.072693 304.969025,523.019287 304.981415,529.844238 
M602.215515,521.714966 
	C602.051331,518.779846 603.018433,514.876770 601.499146,513.100952 
	C597.756470,508.726379 592.238220,510.385101 586.904724,510.517426 
	C586.904724,514.553833 586.904724,518.017090 586.904724,521.480286 
	C586.904724,524.908264 586.904724,528.336182 586.904724,531.936462 
	C588.852844,531.936462 590.258545,531.936462 591.756226,531.936462 
	C591.961060,529.561890 592.140869,527.477539 592.246338,526.254639 
	C595.844238,524.767212 598.804626,523.543335 602.215515,521.714966 
M289.218872,532.521729 
	C293.066986,531.951111 295.768311,530.141968 296.190796,525.955872 
	C296.616486,521.737976 293.875397,520.072021 290.471558,518.964783 
	C289.997650,518.810608 289.395721,518.766785 289.086243,518.446533 
	C288.351868,517.686707 287.757477,516.791565 287.106506,515.951172 
	C288.194244,515.468933 289.247925,514.855591 290.384277,514.560608 
	C290.940552,514.416260 291.745605,515.154785 292.270996,514.982910 
	C293.358887,514.627014 294.335022,513.929504 295.357117,513.372437 
	C294.727539,512.557800 294.268585,511.414856 293.439545,510.983978 
	C289.296143,508.830444 283.803009,510.511383 282.237549,514.251709 
	C280.608948,518.142883 282.431152,520.962097 287.517029,523.220337 
	C288.894897,523.832092 289.811615,525.482422 290.940002,526.656006 
	C289.346741,527.006653 287.765686,527.435608 286.156830,527.685974 
	C284.539490,527.937683 282.894470,528.011719 281.261597,528.163574 
	C281.223724,528.881104 281.185883,529.598633 281.148010,530.316223 
	C283.586914,531.068604 286.025787,531.821045 289.218872,532.521729 
M469.964478,521.947266 
	C472.023468,518.320923 474.082458,514.694519 476.317688,510.757721 
	C468.293793,508.785278 469.642670,516.443542 465.784180,519.035583 
	C464.661682,516.848572 463.912964,514.368347 462.337921,512.642151 
	C461.063873,511.245819 458.794708,510.757477 456.431610,509.605286 
	C459.671722,517.782227 462.348999,524.538757 465.363068,532.145203 
	C465.532990,532.136719 467.059937,532.060608 468.434723,531.992065 
	C468.847565,528.504578 469.195007,525.569641 469.964478,521.947266 
M665.991333,510.228790 
	C664.603577,510.929504 663.215820,511.630249 661.828064,512.330933 
	C663.657776,513.492676 665.487549,514.654358 667.947266,516.216003 
	C667.947266,520.803528 667.947266,526.240112 667.947266,531.889709 
	C669.819824,531.889709 671.329895,531.889709 673.176392,531.889709 
	C673.176392,526.044067 673.176392,520.599854 673.176392,515.069519 
	C674.286804,514.863037 675.191101,514.902283 675.860413,514.524841 
	C677.042969,513.857849 678.082397,512.937134 679.181763,512.122681 
	C678.064148,511.491333 676.985474,510.417664 675.821289,510.315277 
	C672.859131,510.054626 669.858765,510.228302 665.991333,510.228790 
M409.315399,514.767029 
	C410.946259,513.907776 412.577118,513.048462 414.207977,512.189209 
	C412.432953,511.535126 410.697723,510.505371 408.873901,510.312225 
	C405.910889,509.998505 402.877747,510.080841 399.900055,510.318848 
	C398.876007,510.400696 397.929169,511.448761 396.947083,512.055420 
	C397.868591,512.886292 398.690826,513.891724 399.744324,514.490356 
	C400.527191,514.935181 401.609863,514.852234 403.063293,515.085266 
	C403.063293,520.787048 403.063293,526.361084 403.063293,532.300049 
	C405.029327,532.168762 406.431213,532.075195 407.819122,531.982544 
	C408.076080,526.112793 408.315002,520.654602 409.315399,514.767029 
M243.439560,528.851562 
	C243.430710,523.547729 243.550232,518.237610 243.294388,512.945740 
	C243.248444,511.995758 241.653656,511.120636 240.774002,510.210938 
	C239.870285,511.090027 238.217102,511.941589 238.183624,512.852661 
	C237.953766,519.110229 238.062866,525.380310 238.062866,531.881714 
	C240.563599,532.081116 243.176651,533.872803 243.439560,528.851562 
M335.280640,531.866516 
	C335.522522,525.435608 335.852051,519.005188 335.891846,512.572998 
	C335.896637,511.796570 334.074554,510.221985 333.553680,510.393951 
	C332.488464,510.745697 331.009247,512.001709 330.967896,512.941162 
	C330.726288,518.428955 330.682159,523.943054 331.011444,529.421814 
	C331.069489,530.387512 333.206451,531.228333 335.280640,531.866516 
z"/>
<path fill="#F8F8F9" opacity="1.000000" stroke="none" 
	d="
M325.121033,413.119415 
	C323.333557,415.573761 323.087280,417.308411 324.668823,420.014282 
	C339.178955,444.839661 322.449646,474.608246 293.744507,475.027679 
	C275.434387,475.295258 257.117188,475.077789 238.428009,475.077789 
	C238.428009,469.463745 238.428009,464.038818 238.428009,458.043457 
	C232.533585,458.043457 226.982254,458.043457 221.165314,458.043457 
	C221.165314,445.234985 221.165314,432.993591 221.165314,420.350281 
	C226.621445,420.350281 232.045486,420.350281 237.796814,420.350281 
	C237.796814,418.075348 237.796814,416.193146 237.796814,413.877655 
	C232.390564,413.877655 226.969681,413.877655 221.220459,413.877655 
	C221.220459,401.246033 221.220459,389.036346 221.220459,376.415924 
	C226.722977,376.415924 232.150940,376.415924 237.940582,376.415924 
	C237.940582,370.589661 237.940582,365.158936 237.940582,359.472473 
	C239.188705,359.277222 240.114975,359.007141 241.041611,359.005920 
	C258.864380,358.982452 276.689758,358.798645 294.509430,359.036560 
	C322.062225,359.404449 338.784119,388.749786 325.121033,413.119415 
M307.991547,451.458099 
	C303.773438,456.046906 298.473938,457.901093 292.329346,457.838562 
	C285.164032,457.765594 277.997345,457.834015 270.831238,457.837585 
	C265.049164,457.840485 259.267059,457.838165 253.318939,457.838165 
	C253.318939,453.977570 253.318939,450.738037 253.318939,447.074402 
	C255.180664,447.074402 256.812683,447.076019 258.444702,447.074127 
	C270.110535,447.060760 281.776886,447.107178 293.441956,447.006348 
	C298.954651,446.958740 302.201782,443.819427 302.183075,438.929443 
	C302.164490,434.074982 298.915558,431.076508 293.314972,431.020782 
	C283.483154,430.922943 273.650085,430.940826 263.817535,430.929413 
	C253.179688,430.917084 242.541824,430.926636 231.770874,430.926636 
	C231.770874,436.493134 231.770874,441.678192 231.770874,446.772705 
	C234.088470,446.772705 235.997391,446.772705 238.414581,446.772705 
	C238.414581,442.925598 238.414581,439.371796 238.414581,435.838257 
	C242.049072,435.838257 245.153854,435.838257 248.863739,435.838257 
	C248.863739,445.484131 248.863739,454.874115 248.863739,464.199341 
	C265.443176,464.199341 281.448212,464.860748 297.371460,464.003326 
	C311.758972,463.228668 322.345184,448.995697 319.035095,435.008881 
	C317.475922,428.420624 313.025330,422.516632 309.884949,416.302582 
	C309.279297,416.239380 308.673676,416.176178 308.068024,416.112976 
	C309.745972,414.767334 311.673309,413.637939 313.059540,412.039337 
	C319.865265,404.190979 321.696381,395.184113 317.839508,385.542389 
	C314.075562,376.132965 306.865295,370.119751 296.652191,369.751984 
	C280.881531,369.184143 265.075378,369.602356 249.020111,369.602356 
	C249.020111,371.846161 249.020111,373.897217 249.020111,376.329926 
	C250.923752,376.329926 252.554855,376.329834 254.185959,376.329926 
	C267.351807,376.330719 280.519440,376.199005 293.682953,376.374451 
	C304.112610,376.513397 312.231903,383.991272 312.927643,393.655060 
	C313.635498,403.487030 306.677155,412.697113 296.385834,413.267151 
	C282.147675,414.055786 267.833130,413.465179 253.327179,413.465179 
	C253.327179,410.025818 253.327179,406.795288 253.327179,403.123627 
	C255.034180,403.123627 256.493530,403.123627 257.952881,403.123627 
	C269.452179,403.123505 280.951691,403.159454 292.450500,403.085571 
	C294.236450,403.074097 296.199677,402.942932 297.767639,402.203156 
	C301.596191,400.396820 302.896118,396.981506 301.960693,393.020599 
	C300.943146,388.711945 297.823059,386.866638 293.449829,386.872437 
	C273.451172,386.899017 253.452438,386.882812 233.453766,386.904999 
	C232.850403,386.905640 232.247345,387.160248 231.678604,387.288696 
	C231.678604,392.659851 231.678604,397.746490 231.678604,402.895020 
	C233.907440,402.895020 235.836655,402.895020 238.292450,402.895020 
	C238.292450,398.943604 238.292450,395.205017 238.292450,391.584778 
	C242.047806,391.584778 245.263794,391.584778 248.847534,391.584778 
	C248.847534,401.248169 248.847534,410.512634 248.847534,419.442230 
	C249.355270,419.873596 249.480423,420.073120 249.606186,420.073517 
	C263.937134,420.119385 278.268127,420.168854 292.599121,420.175140 
	C300.814392,420.178772 307.133942,423.522827 310.949341,430.875702 
	C314.658691,438.024139 313.220367,444.716217 307.991547,451.458099 
z"/>
<path fill="#F9F9FA" opacity="1.000000" stroke="none" 
	d="
M477.678894,446.328125 
	C473.239655,438.202393 470.311462,430.005798 469.919312,420.345215 
	C475.751770,420.345215 481.302124,420.345215 486.999023,420.345215 
	C486.999023,417.794647 486.999023,415.882233 486.999023,413.563721 
	C481.370575,413.563721 475.936340,413.563721 470.564270,413.563721 
	C467.457825,389.239716 495.809814,361.211914 523.635071,358.779449 
	C557.137085,355.850708 585.950989,387.125397 585.974304,413.272888 
	C580.538574,413.272888 575.092590,413.272888 569.300537,413.272888 
	C569.300537,415.641602 569.300537,417.671417 569.300537,420.087341 
	C574.731140,420.087341 580.164917,420.087341 586.141968,420.087341 
	C585.952820,432.903442 581.684021,443.788910 574.004333,453.330688 
	C559.339600,471.551208 534.289124,479.357666 511.913483,472.653961 
	C508.958954,471.768799 506.584717,468.903137 503.628082,468.076111 
	C491.750397,464.753693 484.013184,456.715942 477.678894,446.328125 
M502.009064,432.343079 
	C512.628479,448.613007 533.559570,452.590637 547.211121,439.980469 
	C552.551636,435.047363 557.692566,435.112885 564.265869,435.458923 
	C563.428040,437.039001 562.936218,438.221741 562.230408,439.258820 
	C553.692383,451.804138 541.707581,458.253571 526.648438,457.619263 
	C511.032379,456.961456 498.943329,449.563629 491.913147,435.363831 
	C489.735138,430.964539 487.242706,430.108643 482.759644,431.470245 
	C486.725830,442.631958 493.412598,451.907196 502.723236,458.772675 
	C506.476227,461.540039 512.071350,461.951233 516.911621,463.075073 
	C530.766846,466.291992 543.715759,464.021423 555.402100,455.826050 
	C564.074036,449.744507 570.066406,441.617920 573.377747,430.919525 
	C571.203796,430.919525 569.567566,430.919586 567.931335,430.919556 
	C549.437439,430.919495 530.943542,430.919342 512.449646,430.919250 
	C504.837646,430.919220 502.685272,428.490723 503.168213,420.187134 
	C512.306274,420.187134 521.460388,420.187134 530.614502,420.187134 
	C539.737061,420.187134 548.859619,420.187134 558.145386,420.187134 
	C558.371338,418.629639 558.764282,417.483063 558.662781,416.382111 
	C557.542053,404.223785 552.075928,394.614929 540.792908,389.510651 
	C529.612610,384.452881 518.166382,385.276611 509.062286,393.700836 
	C503.708679,398.654755 498.535034,398.600098 491.977264,398.027405 
	C492.657318,396.795349 493.061096,395.922394 493.587494,395.130981 
	C502.202271,382.179596 514.327454,375.477631 529.844116,376.167084 
	C545.340698,376.855652 557.079041,384.462585 564.223877,398.244324 
	C566.360168,402.365051 568.550293,404.032837 572.899475,402.687958 
	C569.693787,384.876526 549.264587,369.574432 528.394592,369.375397 
	C507.498627,369.176117 486.602081,384.520905 483.167755,402.931152 
	C484.851227,402.931152 486.464935,402.928589 488.078644,402.931519 
	C507.405243,402.966766 526.732483,403.093933 546.057800,402.953766 
	C549.486389,402.928955 551.354492,404.023651 552.218323,407.222626 
	C552.724915,409.098572 553.380676,410.934265 554.172668,413.428223 
	C535.119507,413.428223 516.696411,413.428223 498.240723,413.428223 
	C497.250763,420.264130 498.713898,426.115784 502.009064,432.343079 
z"/>
<path fill="#F9F9FA" opacity="1.000000" stroke="none" 
	d="
M690.899292,413.040527 
	C690.899292,409.405945 690.899292,406.264221 690.899292,402.966187 
	C700.401794,402.966187 709.535889,402.966187 718.894226,402.966187 
	C718.894226,421.034790 718.894226,438.968048 718.894226,457.237183 
	C713.343506,457.237183 707.881104,457.237183 701.941650,457.237183 
	C701.941650,463.129486 701.941650,468.719971 701.941650,473.919556 
	C701.226257,474.511505 700.980164,474.892120 700.740479,474.888153 
	C686.609924,474.654785 672.308228,475.690277 658.386169,473.852295 
	C630.802551,470.210785 610.352478,444.770874 610.637329,416.548706 
	C610.921265,388.421082 631.482544,363.485352 658.886963,360.165771 
	C672.466797,358.520813 686.410461,359.879944 700.945618,359.879944 
	C700.945618,368.727814 700.945618,377.521027 700.945618,387.084320 
	C698.563416,387.084320 695.646667,387.083893 692.729919,387.084412 
	C685.067078,387.085754 677.402649,386.987335 669.741699,387.109283 
	C652.069458,387.390564 639.082703,399.802673 638.888000,416.472443 
	C638.688904,433.517914 651.367920,446.234467 669.276550,446.810120 
	C674.756531,446.986267 680.246948,446.837463 686.019287,446.837463 
	C686.019287,450.369995 686.019287,453.617920 686.019287,457.348083 
	C671.742249,457.846497 657.517883,458.837128 644.926086,449.797943 
	C631.192017,439.938812 625.063049,422.634155 629.650818,406.036804 
	C634.057800,390.093567 648.107971,378.110352 664.575134,377.005920 
	C673.155701,376.430420 681.806702,376.904510 690.657471,376.904510 
	C690.657471,374.140594 690.657471,372.219299 690.657471,369.886749 
	C672.020081,369.593903 653.298340,367.324768 637.593872,381.126648 
	C623.347839,393.646790 617.668762,414.071716 623.973999,432.481354 
	C630.178406,450.596741 647.078552,463.431488 665.993164,464.087494 
	C674.113831,464.369141 682.252380,464.134705 690.899292,464.134705 
	C690.899292,447.083893 690.899292,430.308655 690.899292,413.040527 
M704.530701,446.879791 
	C705.794373,446.256409 708.144897,445.657074 708.159302,445.006012 
	C708.389648,434.598022 708.321777,424.183411 708.321777,413.809570 
	C705.722351,413.809570 703.846252,413.809570 701.687134,413.809570 
	C701.687134,424.157227 701.636963,434.134979 701.769958,444.110260 
	C701.782349,445.039062 702.955017,445.952454 704.530701,446.879791 
z"/>
<path fill="#F8F8F9" opacity="1.000000" stroke="none" 
	d="
M358.329498,457.620453 
	C354.138153,458.043640 355.011200,455.314087 355.008331,453.334106 
	C354.982422,435.502228 355.000488,417.670227 355.003143,399.838287 
	C355.005127,386.375641 355.003510,372.912994 355.003510,359.201294 
	C364.410339,359.201294 373.472961,359.201294 382.998840,359.201294 
	C382.998840,394.326385 382.998840,429.240356 382.998840,464.242188 
	C405.724030,464.242188 427.985565,464.242188 450.543823,464.242188 
	C450.543823,462.099396 450.543823,460.193054 450.543823,457.819702 
	C429.795929,457.819702 409.023651,457.819702 387.854431,457.819702 
	C387.854431,454.151672 387.854431,450.928955 387.854431,447.368256 
	C412.055634,447.368256 436.297089,447.368256 460.848206,447.368256 
	C460.848206,456.327423 460.848206,465.404083 460.848206,474.780853 
	C431.553253,474.780853 402.180573,474.780853 372.428772,474.780853 
	C372.428772,469.192871 372.428772,463.751404 372.428772,457.621674 
	C367.643341,457.621674 363.220703,457.621674 358.329498,457.620453 
M365.722900,412.499817 
	C365.722900,423.917725 365.722900,435.335663 365.722900,446.775330 
	C368.216827,446.775330 370.128876,446.775330 371.990295,446.775330 
	C371.990295,420.946350 371.990295,395.392670 371.990295,369.748260 
	C369.784698,369.748260 367.923676,369.748260 365.722809,369.748260 
	C365.722809,383.911530 365.722809,397.705658 365.722900,412.499817 
z"/>
<path fill="#F5820B" opacity="1.000000" stroke="none" 
	d="
M462.050842,105.000000 
	C462.050964,84.507523 462.050507,64.515053 462.052734,44.522579 
	C462.052887,43.189903 461.986420,41.849731 462.100281,40.525887 
	C462.522736,35.614017 465.575684,32.668591 470.105804,32.720570 
	C474.616699,32.772331 477.529816,35.743942 477.909454,40.740223 
	C477.997589,41.900307 477.946289,43.071564 477.946320,44.237682 
	C477.946686,125.706917 477.950592,207.176147 477.920319,288.645386 
	C477.919464,290.954926 477.841400,293.335510 477.292633,295.557831 
	C476.374359,299.277100 473.610168,300.988007 469.867676,300.940308 
	C466.120911,300.892639 463.432373,299.094635 462.569946,295.364349 
	C462.090576,293.290741 462.071350,291.080017 462.070496,288.931000 
	C462.046295,227.787338 462.050903,166.643661 462.050842,105.000000 
z"/>
<path fill="#FA8307" opacity="1.000000" stroke="none" 
	d="
M517.280151,104.000061 
	C517.275208,152.448944 517.272644,200.397812 517.256958,248.346680 
	C517.256226,250.508850 517.332886,252.698837 517.030945,254.827271 
	C516.430908,259.056946 513.687622,261.371033 509.561157,261.478577 
	C505.359772,261.588074 502.733856,259.189606 501.903595,255.054520 
	C501.644745,253.765396 501.700836,252.402649 501.700256,251.073563 
	C501.675385,194.966812 501.659760,138.860077 501.649078,82.753326 
	C501.648834,81.589203 501.629883,80.413658 501.774780,79.262962 
	C502.335938,74.806900 504.999146,72.392563 509.380859,72.127365 
	C513.550354,71.875023 517.023376,75.057228 517.151428,79.528969 
	C517.380127,87.514008 517.256409,95.509148 517.280151,104.000061 
z"/>
<path fill="#FB8307" opacity="1.000000" stroke="none" 
	d="
M426.560089,260.445740 
	C422.727844,258.029327 422.706573,254.529175 422.709076,250.953934 
	C422.730225,220.634354 422.719299,190.314774 422.718811,159.995178 
	C422.718384,134.673325 422.715546,109.351471 422.726562,84.029617 
	C422.727356,82.199417 422.645905,80.339890 422.927765,78.545052 
	C423.559906,74.519905 426.248840,72.392868 430.123444,72.167603 
	C434.058105,71.938835 436.797791,73.994324 437.946808,77.809349 
	C438.322571,79.056877 438.337738,80.445068 438.338135,81.768990 
	C438.355774,138.409973 438.372925,195.050964 438.330597,251.691925 
	C438.324585,259.726135 434.571960,262.548615 426.560089,260.445740 
z"/>
<path fill="#F78207" opacity="1.000000" stroke="none" 
	d="
M541.029053,170.000000 
	C541.029236,154.011856 541.026672,138.523727 541.033813,123.035583 
	C541.034485,121.537842 540.896851,120.003433 541.165649,118.549316 
	C541.961792,114.242531 544.610840,111.610664 549.027466,111.638634 
	C553.441101,111.666595 556.118042,114.320015 556.800232,118.642372 
	C557.134216,120.758591 556.942810,122.961990 556.943115,125.125946 
	C556.947449,153.604080 556.943604,182.082199 556.941711,210.560333 
	C556.941650,211.393021 556.964539,212.226532 556.936218,213.058273 
	C556.747559,218.601746 553.724609,221.988983 548.970886,221.998871 
	C544.349182,222.008484 541.192200,218.536545 541.066833,212.966476 
	C540.939392,207.307251 541.054199,201.642700 541.052307,195.980484 
	C541.049438,187.486984 541.037292,178.993500 541.029053,170.000000 
z"/>
<path fill="#F88107" opacity="1.000000" stroke="none" 
	d="
M383.054138,184.000000 
	C383.054047,163.343994 383.049683,143.188004 383.061523,123.032013 
	C383.062531,121.369835 382.910553,119.645638 383.285248,118.057770 
	C384.233643,114.038406 386.867188,111.595573 391.068115,111.629807 
	C395.259460,111.663956 397.876648,114.116013 398.764587,118.161743 
	C399.115234,119.759415 398.963348,121.477272 398.963806,123.140427 
	C398.972107,152.125092 398.968872,181.109741 398.966339,210.094406 
	C398.966217,211.426941 399.028931,212.765686 398.925842,214.090912 
	C398.553345,218.879791 395.342377,222.040298 390.956451,222.008911 
	C386.568146,221.977509 383.215820,218.819336 383.127197,213.983261 
	C382.947174,204.158371 383.061279,194.328064 383.054138,184.000000 
z"/>
<path fill="#F7820A" opacity="1.000000" stroke="none" 
	d="
M358.156433,178.883469 
	C355.488342,182.224762 352.445557,183.433884 348.693481,181.989410 
	C344.917175,180.535583 343.635956,177.413559 343.591370,173.664017 
	C343.534180,168.853943 343.407501,164.033127 343.650757,159.234192 
	C343.911682,154.087479 347.300842,150.887772 351.807312,151.046646 
	C356.070587,151.196945 359.330292,154.385010 359.321838,159.310287 
	C359.310791,165.725586 358.711731,172.139877 358.156433,178.883469 
z"/>
<path fill="#F4880A" opacity="1.000000" stroke="none" 
	d="
M580.850037,158.146378 
	C581.718567,153.024292 584.747559,150.738693 589.282288,151.155731 
	C593.929504,151.583084 596.227112,154.812653 596.359619,159.327942 
	C596.510132,164.458344 596.552185,169.610016 596.256470,174.730194 
	C595.976379,179.580276 592.602417,182.681763 588.331909,182.615601 
	C584.093384,182.549942 580.863403,179.349243 580.691467,174.455536 
	C580.505554,169.165619 580.752258,163.860474 580.850037,158.146378 
z"/>
<path fill="#E37E18" opacity="1.000000" stroke="none" 
	d="
M272.866760,517.150940 
	C272.866547,522.259399 272.866547,526.891724 272.866547,532.114990 
	C264.853699,532.012268 264.320160,523.304077 258.274994,520.593506 
	C258.274994,524.540894 258.274994,528.090332 258.274994,531.480286 
	C254.861130,532.908081 253.343796,532.292175 253.410080,528.860168 
	C253.506439,523.870850 253.353867,518.876160 253.489182,513.888672 
	C253.520844,512.721497 254.281631,511.574127 254.706970,510.417633 
	C256.023773,510.915436 257.741852,511.049011 258.584503,511.977234 
	C261.469116,515.154541 264.046356,518.610901 268.077698,521.781738 
	C268.077698,519.308716 267.811462,516.795227 268.178192,514.377869 
	C268.395813,512.943298 269.611145,511.660156 270.377869,510.308929 
	C271.207001,511.598999 272.166687,512.828125 272.809937,514.205017 
	C273.129028,514.888062 272.866425,515.842896 272.866760,517.150940 
z"/>
<path fill="#E57F18" opacity="1.000000" stroke="none" 
	d="
M543.891846,521.064819 
	C543.488953,526.796448 541.052612,530.632568 535.693298,532.033936 
	C530.982544,533.265625 526.683655,532.290344 523.577393,528.388733 
	C520.516479,524.544128 520.158447,520.198181 522.474487,515.796631 
	C524.634705,511.691101 529.471924,509.458160 534.291565,510.206299 
	C539.723206,511.049438 542.467590,514.040588 543.891846,521.064819 
M528.127075,526.498596 
	C528.429688,526.649536 528.732300,526.800537 529.000000,527.000000 
	C529.000000,527.000000 529.038635,526.953857 529.543579,527.554749 
	C532.974121,528.760559 536.214478,528.659119 537.838928,524.931702 
	C539.219543,521.763733 539.878540,518.322632 535.245911,515.925171 
	C533.430481,515.850647 531.615112,515.776123 529.173340,515.736633 
	C528.726196,516.103210 528.279114,516.469727 527.983276,516.916443 
	C527.983276,516.916443 527.833679,516.850525 527.262390,517.298218 
	C527.512878,520.199890 527.763428,523.101501 528.003906,525.996704 
	C528.003906,525.996704 528.001038,525.984741 528.127075,526.498596 
z"/>
<path fill="#E37E18" opacity="1.000000" stroke="none" 
	d="
M354.968903,526.704773 
	C353.224640,524.401978 351.861359,523.834656 351.424530,527.029053 
	C351.225494,528.484558 351.390717,529.989868 351.390717,531.874207 
	C349.549225,531.874207 348.037384,531.874207 346.410706,531.874207 
	C346.410706,524.686951 346.410706,517.785095 346.410706,510.394196 
	C351.731537,510.524536 357.240662,508.641876 361.016815,513.468994 
	C363.803314,517.031067 361.508667,520.362000 358.786377,523.230286 
	C360.437592,526.032410 362.011810,528.703796 363.650604,531.484802 
	C358.368134,533.970764 356.955048,530.162415 354.968903,526.704773 
M351.136780,517.470276 
	C351.945770,518.552734 352.754761,519.635193 353.563751,520.717651 
	C354.706238,519.732178 356.339142,518.931396 356.806000,517.691467 
	C357.083160,516.955444 355.520691,514.614746 354.788971,514.616394 
	C353.572479,514.619080 352.358917,515.925476 351.136780,517.470276 
z"/>
<path fill="#D67A1F" opacity="1.000000" stroke="none" 
	d="
M575.123779,510.262634 
	C576.058899,511.355988 577.015991,512.406982 577.042603,513.480957 
	C577.190918,519.467712 577.113770,525.460022 577.113770,531.390503 
	C574.189087,532.191772 574.189087,532.191772 571.504456,520.767151 
	C570.048218,523.410278 568.966614,525.567627 567.707153,527.615479 
	C565.686951,530.900085 563.877930,530.902588 561.856262,527.591492 
	C560.573242,525.490234 559.515808,523.251221 557.375977,521.213074 
	C557.375977,524.701355 557.375977,528.189697 557.375977,531.677979 
	C556.858582,532.045898 556.341187,532.413818 555.823792,532.781738 
	C554.657593,531.699219 552.545593,530.668396 552.483093,529.525574 
	C552.148682,523.403687 552.325256,517.253967 552.325256,511.136322 
	C556.550049,508.918213 558.361633,511.039398 559.855591,514.283447 
	C561.162476,517.121338 562.730774,519.838928 564.768738,523.725525 
	C566.840393,519.789856 568.189331,516.622192 570.098633,513.839050 
	C571.152222,512.303223 573.146118,511.412506 575.123779,510.262634 
M570.413452,516.621338 
	C576.017334,519.344971 572.845276,525.242188 575.207581,529.317444 
	C575.831665,524.003540 575.875977,518.742065 575.683167,513.489319 
	C575.674683,513.258850 573.287109,512.647583 572.388245,513.054504 
	C571.551086,513.433411 571.222229,514.935425 570.413452,516.621338 
M558.629517,516.616699 
	C557.656433,515.025391 556.683350,513.434021 555.710266,511.842712 
	C555.318420,512.108582 554.926636,512.374451 554.534790,512.640320 
	C554.534790,518.173767 554.534790,523.707214 554.534790,529.240662 
	C555.028809,529.250305 555.522827,529.259949 556.016846,529.269531 
	C556.016846,526.917114 555.710022,524.509827 556.117371,522.230164 
	C556.423584,520.516357 557.646484,518.966309 558.629517,516.616699 
z"/>
<path fill="#D77717" opacity="1.000000" stroke="none" 
	d="
M695.973999,514.483887 
	C694.683167,515.419189 693.833252,516.346008 692.983398,517.272827 
	C693.811401,517.882141 694.597168,518.562927 695.477295,519.084167 
	C696.828430,519.884155 698.244385,520.574585 699.632874,521.311462 
	C698.178345,521.960266 696.734436,522.634766 695.262817,523.242188 
	C694.818054,523.425781 694.296509,523.423401 693.582153,523.544922 
	C692.300354,526.483704 692.734863,528.253967 696.472778,528.116211 
	C697.304688,528.085510 698.253967,527.871948 698.945312,528.188171 
	C699.968994,528.656555 700.810486,529.523132 701.729553,530.220154 
	C700.856934,530.941101 700.021545,532.223328 699.105164,532.284058 
	C695.475769,532.524597 691.821106,532.382996 687.736877,532.382996 
	C687.736877,525.004822 687.736877,517.974976 687.736877,510.173859 
	C691.281677,510.173859 694.733887,509.973419 698.140869,510.278625 
	C699.394592,510.390961 700.541199,511.697479 701.736694,512.459290 
	C700.629395,513.127502 699.565979,513.892700 698.395691,514.421509 
	C697.840637,514.672302 697.081604,514.471619 695.973999,514.483887 
z"/>
<path fill="#E78119" opacity="1.000000" stroke="none" 
	d="
M638.161499,531.097046 
	C638.058105,524.095520 638.058105,517.504700 638.058105,510.427460 
	C643.669861,510.585175 649.628479,508.412415 652.891663,513.942505 
	C654.190796,516.144226 652.521118,520.097778 652.202942,523.253784 
	C651.680115,523.258423 651.157349,523.263062 650.634521,523.267700 
	C652.198547,525.932617 653.762573,528.597534 655.427185,531.433777 
	C647.878845,534.911316 648.611206,525.727539 643.588684,524.329529 
	C643.332642,526.852539 643.096680,529.178162 642.790833,532.192078 
	C641.252686,531.959534 639.758789,531.733704 638.161499,531.097046 
M644.481018,514.175232 
	C643.914795,516.213684 643.348572,518.252197 642.782288,520.290649 
	C643.383972,520.656799 643.985657,521.022888 644.587280,521.389038 
	C646.025269,520.203979 647.463196,519.018921 648.901123,517.833862 
	C647.694641,516.601257 646.488098,515.368652 644.481018,514.175232 
z"/>
<path fill="#DE7C18" opacity="1.000000" stroke="none" 
	d="
M428.013306,515.978638 
	C428.929962,517.329895 429.884857,518.323853 430.981384,519.123596 
	C432.124756,519.957458 433.404633,520.604187 434.624847,521.332703 
	C433.470306,521.936523 432.320770,523.040039 431.160339,523.051636 
	C427.520386,523.088196 427.533295,524.976440 428.442322,528.168274 
	C430.375397,528.168274 432.359955,527.977783 434.277527,528.253418 
	C435.158051,528.379944 435.907104,529.421265 436.715759,530.047729 
	C435.876343,530.807312 435.077911,532.161316 434.190460,532.222351 
	C430.565094,532.471924 426.912506,532.326477 422.467560,532.326477 
	C422.467560,525.407532 422.414459,518.821533 422.548431,512.239319 
	C422.562073,511.570496 423.671814,510.392761 424.322998,510.356750 
	C427.811188,510.163666 431.323639,510.131439 434.806793,510.360718 
	C435.494598,510.406036 436.357422,511.767822 436.602173,512.668518 
	C436.704315,513.044373 435.485992,514.126404 434.722260,514.324036 
	C432.559753,514.883789 430.321960,515.152527 428.013306,515.978638 
z"/>
<path fill="#E57F18" opacity="1.000000" stroke="none" 
	d="
M372.348267,532.208862 
	C371.907257,531.171387 371.477020,530.059814 371.783966,529.216431 
	C373.712921,523.916321 375.659454,518.610901 377.944305,513.459839 
	C378.539490,512.118042 380.335999,510.532318 381.621979,510.495392 
	C382.871277,510.459503 384.780548,512.004395 385.348297,513.311829 
	C387.908447,519.207031 390.095093,525.264526 392.416351,531.263489 
	C392.041718,531.740295 391.667053,532.217163 391.292419,532.693970 
	C389.733795,531.713928 387.758179,531.056824 386.699341,529.689636 
	C384.128235,526.369812 379.240051,526.508240 376.608978,530.023010 
	C375.783539,531.125793 374.029083,531.533142 372.348267,532.208862 
M379.536896,521.140076 
	C378.946472,526.259094 382.314667,523.158813 384.697418,523.972595 
	C383.676910,520.941101 382.910950,518.665894 381.796356,515.354980 
	C380.838470,517.787415 380.316101,519.113892 379.536896,521.140076 
z"/>
<path fill="#E57F18" opacity="1.000000" stroke="none" 
	d="
M613.565918,517.488159 
	C614.190186,515.897095 614.398987,514.451904 615.183899,513.464844 
	C616.183533,512.207703 617.629395,510.530640 618.919617,510.498199 
	C620.199524,510.466034 622.158081,511.978180 622.721985,513.286072 
	C625.270325,519.196777 627.429932,525.275146 629.087524,532.506409 
	C627.444214,531.808838 625.249756,531.557312 624.258423,530.332153 
	C620.971924,526.270630 617.052063,526.252197 613.752380,530.343933 
	C612.765442,531.567749 610.731018,531.946838 609.176514,532.713013 
	C608.855652,532.346191 608.534729,531.979370 608.213867,531.612549 
	C609.944702,527.020874 611.675476,522.429199 613.565918,517.488159 
M616.663879,521.945374 
	C618.087097,522.736938 619.510315,523.528442 620.933533,524.320007 
	C621.199341,523.880615 621.465210,523.441223 621.731079,523.001831 
	C620.982910,520.819336 620.234741,518.636841 619.036316,515.140930 
	C617.947083,518.184753 617.402161,519.707458 616.663879,521.945374 
z"/>
<path fill="#E98116" opacity="1.000000" stroke="none" 
	d="
M304.975220,529.405029 
	C304.969025,523.019287 304.969025,517.072693 304.969025,510.529694 
	C308.484100,510.529694 311.726044,510.295197 314.919281,510.589447 
	C318.857849,510.952362 321.350983,513.204651 321.465607,517.353699 
	C321.586304,521.722229 319.044678,524.014282 314.988831,524.817505 
	C313.561859,525.100098 312.084381,525.127747 310.376251,525.296936 
	C310.188568,527.545837 310.014740,529.628845 309.705353,533.336487 
	C307.618652,531.793884 306.300049,530.819031 304.975220,529.405029 
M312.358704,514.159790 
	C311.345490,516.084595 310.332275,518.009399 309.319092,519.934204 
	C309.858704,520.434387 310.398285,520.934509 310.937897,521.434692 
	C312.619934,520.633057 314.301971,519.831421 315.984009,519.029785 
	C315.049408,517.428894 314.114807,515.828064 312.358704,514.159790 
z"/>
<path fill="#E98116" opacity="1.000000" stroke="none" 
	d="
M601.990295,522.017212 
	C598.804626,523.543335 595.844238,524.767212 592.246338,526.254639 
	C592.140869,527.477539 591.961060,529.561890 591.756226,531.936462 
	C590.258545,531.936462 588.852844,531.936462 586.904724,531.936462 
	C586.904724,528.336182 586.904724,524.908264 586.904724,521.480286 
	C586.904724,518.017090 586.904724,514.553833 586.904724,510.517426 
	C592.238220,510.385101 597.756470,508.726379 601.499146,513.100952 
	C603.018433,514.876770 602.051331,518.779846 601.990295,522.017212 
M596.678467,514.808899 
	C595.305603,514.578735 593.932739,514.348511 592.365723,514.085815 
	C592.365723,516.735107 592.365723,518.772949 592.365723,520.801575 
	C598.115601,520.852600 598.594238,520.276062 596.678467,514.808899 
z"/>
<path fill="#E17E1A" opacity="1.000000" stroke="none" 
	d="
M288.841797,532.547607 
	C286.025787,531.821045 283.586914,531.068604 281.148010,530.316223 
	C281.185883,529.598633 281.223724,528.881104 281.261597,528.163574 
	C282.894470,528.011719 284.539490,527.937683 286.156830,527.685974 
	C287.765686,527.435608 289.346741,527.006653 290.940002,526.656006 
	C289.811615,525.482422 288.894897,523.832092 287.517029,523.220337 
	C282.431152,520.962097 280.608948,518.142883 282.237549,514.251709 
	C283.803009,510.511383 289.296143,508.830444 293.439545,510.983978 
	C294.268585,511.414856 294.727539,512.557800 295.357117,513.372437 
	C294.335022,513.929504 293.358887,514.627014 292.270996,514.982910 
	C291.745605,515.154785 290.940552,514.416260 290.384277,514.560608 
	C289.247925,514.855591 288.194244,515.468933 287.106506,515.951172 
	C287.757477,516.791565 288.351868,517.686707 289.086243,518.446533 
	C289.395721,518.766785 289.997650,518.810608 290.471558,518.964783 
	C293.875397,520.072021 296.616486,521.737976 296.190796,525.955872 
	C295.768311,530.141968 293.066986,531.951111 288.841797,532.547607 
z"/>
<path fill="#DE7C18" opacity="1.000000" stroke="none" 
	d="
M469.753479,522.290955 
	C469.195007,525.569641 468.847565,528.504578 468.434723,531.992065 
	C467.059937,532.060608 465.532990,532.136719 465.363068,532.145203 
	C462.348999,524.538757 459.671722,517.782227 456.431610,509.605286 
	C458.794708,510.757477 461.063873,511.245819 462.337921,512.642151 
	C463.912964,514.368347 464.661682,516.848572 465.784180,519.035583 
	C469.642670,516.443542 468.293793,508.785278 476.317688,510.757721 
	C474.082458,514.694519 472.023468,518.320923 469.753479,522.290955 
z"/>
<path fill="#E4801C" opacity="1.000000" stroke="none" 
	d="
M666.432495,510.228455 
	C669.858765,510.228302 672.859131,510.054626 675.821289,510.315277 
	C676.985474,510.417664 678.064148,511.491333 679.181763,512.122681 
	C678.082397,512.937134 677.042969,513.857849 675.860413,514.524841 
	C675.191101,514.902283 674.286804,514.863037 673.176392,515.069519 
	C673.176392,520.599854 673.176392,526.044067 673.176392,531.889709 
	C671.329895,531.889709 669.819824,531.889709 667.947266,531.889709 
	C667.947266,526.240112 667.947266,520.803528 667.947266,516.216003 
	C665.487549,514.654358 663.657776,513.492676 661.828064,512.330933 
	C663.215820,511.630249 664.603577,510.929504 666.432495,510.228455 
z"/>
<path fill="#E4801C" opacity="1.000000" stroke="none" 
	d="
M408.934662,514.981689 
	C408.315002,520.654602 408.076080,526.112793 407.819122,531.982544 
	C406.431213,532.075195 405.029327,532.168762 403.063293,532.300049 
	C403.063293,526.361084 403.063293,520.787048 403.063293,515.085266 
	C401.609863,514.852234 400.527191,514.935181 399.744324,514.490356 
	C398.690826,513.891724 397.868591,512.886292 396.947083,512.055420 
	C397.929169,511.448761 398.876007,510.400696 399.900055,510.318848 
	C402.877747,510.080841 405.910889,509.998505 408.873901,510.312225 
	C410.697723,510.505371 412.432953,511.535126 414.207977,512.189209 
	C412.577118,513.048462 410.946259,513.907776 408.934662,514.981689 
z"/>
<path fill="#E57F18" opacity="1.000000" stroke="none" 
	d="
M498.978546,512.959473 
	C504.205200,509.090942 507.981018,509.015015 514.869019,513.768311 
	C512.120850,514.349365 510.483887,515.174133 509.038391,514.918030 
	C502.901123,513.830505 499.325378,517.301697 500.739349,523.338562 
	C501.573303,526.899048 503.392151,529.158997 508.222076,527.975464 
	C511.248260,527.868042 512.285706,528.619446 511.015533,530.994202 
	C511.015533,530.994202 510.816711,531.201599 510.188263,531.144165 
	C506.048431,530.725769 502.537048,530.364685 499.025665,530.003601 
	C499.025665,530.003601 498.993683,530.009766 498.885498,529.780823 
	C498.580017,529.286804 498.322998,529.107117 498.006317,529.012878 
	C498.006317,529.012878 497.994141,529.004883 497.958618,528.695923 
	C497.532104,527.964905 497.141083,527.542847 496.750061,527.120789 
	C496.750061,527.120789 496.849762,527.116089 496.868347,526.893433 
	C496.542511,526.124146 496.198090,525.577393 495.853668,525.030701 
	C495.647614,524.576904 495.441559,524.123047 495.433289,523.092834 
	C495.501160,521.701965 495.371246,520.887573 495.241333,520.073120 
	C495.278778,519.579773 495.316223,519.086426 495.803009,518.167786 
	C496.417603,517.083923 496.582916,516.425354 496.748230,515.766785 
	C496.748230,515.766785 496.802399,515.849548 497.053223,515.739380 
	C497.862213,514.739258 498.420380,513.849365 498.978546,512.959473 
z"/>
<path fill="#D47D26" opacity="1.000000" stroke="none" 
	d="
M243.433868,529.269470 
	C243.176651,533.872803 240.563599,532.081116 238.062866,531.881714 
	C238.062866,525.380310 237.953766,519.110229 238.183624,512.852661 
	C238.217102,511.941589 239.870285,511.090027 240.773987,510.210938 
	C241.653656,511.120636 243.248444,511.995758 243.294388,512.945740 
	C243.550232,518.237610 243.430710,523.547729 243.433868,529.269470 
M239.945663,526.068604 
	C240.159088,527.175049 240.372498,528.281494 240.585907,529.387939 
	C240.886932,529.335083 241.187958,529.282288 241.488983,529.229431 
	C241.488983,523.737854 241.488983,518.246277 241.488983,512.754639 
	C240.974075,512.739685 240.459167,512.724670 239.944260,512.709717 
	C239.944260,516.865173 239.944260,521.020691 239.945663,526.068604 
z"/>
<path fill="#DA812B" opacity="1.000000" stroke="none" 
	d="
M334.832031,531.996704 
	C333.206451,531.228333 331.069489,530.387512 331.011444,529.421814 
	C330.682159,523.943054 330.726288,518.428955 330.967896,512.941162 
	C331.009247,512.001709 332.488464,510.745697 333.553680,510.393951 
	C334.074554,510.221985 335.896637,511.796570 335.891846,512.572998 
	C335.852051,519.005188 335.522522,525.435608 334.832031,531.996704 
M331.985382,526.937927 
	C332.216919,527.751709 332.448425,528.565430 332.679962,529.379211 
	C332.894135,529.322449 333.108276,529.265686 333.322449,529.208923 
	C333.322449,523.726013 333.322449,518.243042 333.322449,512.760132 
	C332.874512,512.770508 332.426544,512.780945 331.978607,512.791382 
	C331.978607,517.213379 331.978607,521.635376 331.985382,526.937927 
z"/>
<path fill="#D47D26" opacity="1.000000" stroke="none" 
	d="
M499.210022,530.302612 
	C502.537048,530.364685 506.048431,530.725769 510.044922,531.134460 
	C506.681396,533.611938 503.005127,532.735046 499.210022,530.302612 
z"/>
<path fill="#D47D26" opacity="1.000000" stroke="none" 
	d="
M511.311127,530.958496 
	C512.285706,528.619446 511.248260,527.868042 508.601837,528.008911 
	C509.795959,527.967712 511.312622,527.939331 512.829285,527.910950 
	C512.421753,528.914917 512.014221,529.918823 511.311127,530.958496 
z"/>
<path fill="#D47D26" opacity="1.000000" stroke="none" 
	d="
M498.670898,513.060974 
	C498.420380,513.849365 497.862213,514.739258 497.003784,515.741455 
	C497.256775,514.956604 497.810028,514.059509 498.670898,513.060974 
z"/>
<path fill="#D47D26" opacity="1.000000" stroke="none" 
	d="
M495.811981,525.280884 
	C496.198090,525.577393 496.542511,526.124146 496.841003,526.935181 
	C496.453491,526.643433 496.111877,526.087219 495.811981,525.280884 
z"/>
<path fill="#D47D26" opacity="1.000000" stroke="none" 
	d="
M495.141602,520.421936 
	C495.371246,520.887573 495.501160,521.701965 495.447876,522.714478 
	C495.190430,522.198669 495.116180,521.484680 495.141602,520.421936 
z"/>
<path fill="#D47D26" opacity="1.000000" stroke="none" 
	d="
M496.523315,515.900269 
	C496.582916,516.425354 496.417603,517.083923 496.010590,517.855835 
	C495.945374,517.323975 496.121887,516.678894 496.523315,515.900269 
z"/>
<path fill="#D47D26" opacity="1.000000" stroke="none" 
	d="
M496.790833,527.417236 
	C497.141083,527.542847 497.532104,527.964905 497.955658,528.689331 
	C497.602661,528.565735 497.217133,528.139648 496.790833,527.417236 
z"/>
<path fill="#D47D26" opacity="1.000000" stroke="none" 
	d="
M498.082336,529.250488 
	C498.322998,529.107117 498.580017,529.286804 498.884888,529.764587 
	C498.631470,529.955566 498.353455,529.792480 498.082336,529.250488 
z"/>
<path fill="#171724" opacity="1.000000" stroke="none" 
	d="
M308.239868,451.187866 
	C313.220367,444.716217 314.658691,438.024139 310.949341,430.875702 
	C307.133942,423.522827 300.814392,420.178772 292.599121,420.175140 
	C278.268127,420.168854 263.937134,420.119385 249.606186,420.073517 
	C249.480423,420.073120 249.355270,419.873596 248.847534,419.442230 
	C248.847534,410.512634 248.847534,401.248169 248.847534,391.584778 
	C245.263794,391.584778 242.047806,391.584778 238.292450,391.584778 
	C238.292450,395.205017 238.292450,398.943604 238.292450,402.895020 
	C235.836655,402.895020 233.907440,402.895020 231.678604,402.895020 
	C231.678604,397.746490 231.678604,392.659851 231.678604,387.288696 
	C232.247345,387.160248 232.850403,386.905640 233.453766,386.904999 
	C253.452438,386.882812 273.451172,386.899017 293.449829,386.872437 
	C297.823059,386.866638 300.943146,388.711945 301.960693,393.020599 
	C302.896118,396.981506 301.596191,400.396820 297.767639,402.203156 
	C296.199677,402.942932 294.236450,403.074097 292.450500,403.085571 
	C280.951691,403.159454 269.452179,403.123505 257.952881,403.123627 
	C256.493530,403.123627 255.034180,403.123627 253.327179,403.123627 
	C253.327179,406.795288 253.327179,410.025818 253.327179,413.465179 
	C267.833130,413.465179 282.147675,414.055786 296.385834,413.267151 
	C306.677155,412.697113 313.635498,403.487030 312.927643,393.655060 
	C312.231903,383.991272 304.112610,376.513397 293.682953,376.374451 
	C280.519440,376.199005 267.351807,376.330719 254.185959,376.329926 
	C252.554855,376.329834 250.923752,376.329926 249.020111,376.329926 
	C249.020111,373.897217 249.020111,371.846161 249.020111,369.602356 
	C265.075378,369.602356 280.881531,369.184143 296.652191,369.751984 
	C306.865295,370.119751 314.075562,376.132965 317.839508,385.542389 
	C321.696381,395.184113 319.865265,404.190979 313.059540,412.039337 
	C311.673309,413.637939 309.745972,414.767334 308.068024,416.112976 
	C308.673676,416.176178 309.279297,416.239380 309.884949,416.302582 
	C313.025330,422.516632 317.475922,428.420624 319.035095,435.008881 
	C322.345184,448.995697 311.758972,463.228668 297.371460,464.003326 
	C281.448212,464.860748 265.443176,464.199341 248.863739,464.199341 
	C248.863739,454.874115 248.863739,445.484131 248.863739,435.838257 
	C245.153854,435.838257 242.049072,435.838257 238.414581,435.838257 
	C238.414581,439.371796 238.414581,442.925598 238.414581,446.772705 
	C235.997391,446.772705 234.088470,446.772705 231.770874,446.772705 
	C231.770874,441.678192 231.770874,436.493134 231.770874,430.926636 
	C242.541824,430.926636 253.179688,430.917084 263.817535,430.929413 
	C273.650085,430.940826 283.483154,430.922943 293.314972,431.020782 
	C298.915558,431.076508 302.164490,434.074982 302.183075,438.929443 
	C302.201782,443.819427 298.954651,446.958740 293.441956,447.006348 
	C281.776886,447.107178 270.110535,447.060760 258.444702,447.074127 
	C256.812683,447.076019 255.180664,447.074402 253.318939,447.074402 
	C253.318939,450.738037 253.318939,453.977570 253.318939,457.838165 
	C259.267059,457.838165 265.049164,457.840485 270.831238,457.837585 
	C277.997345,457.834015 285.164032,457.765594 292.329346,457.838562 
	C298.473938,457.901093 303.773438,456.046906 308.239868,451.187866 
z"/>
<path fill="#191925" opacity="1.000000" stroke="none" 
	d="
M501.834290,432.014221 
	C498.713898,426.115784 497.250763,420.264130 498.240723,413.428223 
	C516.696411,413.428223 535.119507,413.428223 554.172668,413.428223 
	C553.380676,410.934265 552.724915,409.098572 552.218323,407.222626 
	C551.354492,404.023651 549.486389,402.928955 546.057800,402.953766 
	C526.732483,403.093933 507.405243,402.966766 488.078644,402.931519 
	C486.464935,402.928589 484.851227,402.931152 483.167755,402.931152 
	C486.602081,384.520905 507.498627,369.176117 528.394592,369.375397 
	C549.264587,369.574432 569.693787,384.876526 572.899475,402.687958 
	C568.550293,404.032837 566.360168,402.365051 564.223877,398.244324 
	C557.079041,384.462585 545.340698,376.855652 529.844116,376.167084 
	C514.327454,375.477631 502.202271,382.179596 493.587494,395.130981 
	C493.061096,395.922394 492.657318,396.795349 491.977264,398.027405 
	C498.535034,398.600098 503.708679,398.654755 509.062286,393.700836 
	C518.166382,385.276611 529.612610,384.452881 540.792908,389.510651 
	C552.075928,394.614929 557.542053,404.223785 558.662781,416.382111 
	C558.764282,417.483063 558.371338,418.629639 558.145386,420.187134 
	C548.859619,420.187134 539.737061,420.187134 530.614502,420.187134 
	C521.460388,420.187134 512.306274,420.187134 503.168213,420.187134 
	C502.685272,428.490723 504.837646,430.919220 512.449646,430.919250 
	C530.943542,430.919342 549.437439,430.919495 567.931335,430.919556 
	C569.567566,430.919586 571.203796,430.919525 573.377747,430.919525 
	C570.066406,441.617920 564.074036,449.744507 555.402100,455.826050 
	C543.715759,464.021423 530.766846,466.291992 516.911621,463.075073 
	C512.071350,461.951233 506.476227,461.540039 502.723236,458.772675 
	C493.412598,451.907196 486.725830,442.631958 482.759644,431.470245 
	C487.242706,430.108643 489.735138,430.964539 491.913147,435.363831 
	C498.943329,449.563629 511.032379,456.961456 526.648438,457.619263 
	C541.707581,458.253571 553.692383,451.804138 562.230408,439.258820 
	C562.936218,438.221741 563.428040,437.039001 564.265869,435.458923 
	C557.692566,435.112885 552.551636,435.047363 547.211121,439.980469 
	C533.559570,452.590637 512.628479,448.613007 501.834290,432.014221 
z"/>
<path fill="#171724" opacity="1.000000" stroke="none" 
	d="
M704.059814,446.876404 
	C702.955017,445.952454 701.782349,445.039062 701.769958,444.110260 
	C701.636963,434.134979 701.687134,424.157227 701.687134,413.809570 
	C703.846252,413.809570 705.722351,413.809570 708.321777,413.809570 
	C708.321777,424.183411 708.389648,434.598022 708.159302,445.006012 
	C708.144897,445.657074 705.794373,446.256409 704.059814,446.876404 
z"/>
<path fill="#131320" opacity="1.000000" stroke="none" 
	d="
M365.722839,411.999817 
	C365.722809,397.705658 365.722809,383.911530 365.722809,369.748260 
	C367.923676,369.748260 369.784698,369.748260 371.990295,369.748260 
	C371.990295,395.392670 371.990295,420.946350 371.990295,446.775330 
	C370.128876,446.775330 368.216827,446.775330 365.722900,446.775330 
	C365.722900,435.335663 365.722900,423.917725 365.722839,411.999817 
z"/>
<path fill="#12111F" opacity="1.000000" stroke="none" 
	d="
M529.799683,515.701599 
	C531.615112,515.776123 533.430481,515.850647 535.686523,516.380066 
	C538.331665,524.428162 536.600647,526.899170 529.038635,526.953857 
	C529.038635,526.953857 529.000000,527.000000 528.909485,526.753540 
	C528.612671,526.229126 528.340027,526.054993 528.001038,525.984741 
	C528.001038,525.984741 528.003906,525.996704 528.014648,525.545044 
	C527.961487,522.345764 527.897583,519.598145 527.833679,516.850525 
	C527.833679,516.850525 527.983276,516.916443 528.224304,516.870850 
	C528.910095,516.450684 529.354919,516.076111 529.799683,515.701599 
z"/>
<path fill="#471C02" opacity="1.000000" stroke="none" 
	d="
M529.291138,527.254272 
	C536.600647,526.899170 538.331665,524.428162 536.052612,516.449402 
	C539.878540,518.322632 539.219543,521.763733 537.838928,524.931702 
	C536.214478,528.659119 532.974121,528.760559 529.291138,527.254272 
z"/>
<path fill="#471C02" opacity="1.000000" stroke="none" 
	d="
M527.548035,517.074341 
	C527.897583,519.598145 527.961487,522.345764 528.019653,525.548279 
	C527.763428,523.101501 527.512878,520.199890 527.548035,517.074341 
z"/>
<path fill="#471C02" opacity="1.000000" stroke="none" 
	d="
M529.486511,515.719116 
	C529.354919,516.076111 528.910095,516.450684 528.148682,516.830750 
	C528.279114,516.469727 528.726196,516.103210 529.486511,515.719116 
z"/>
<path fill="#471C02" opacity="1.000000" stroke="none" 
	d="
M528.064087,526.241699 
	C528.340027,526.054993 528.612671,526.229126 528.926941,526.729309 
	C528.732300,526.800537 528.429688,526.649536 528.064087,526.241699 
z"/>
<path fill="#3D1B09" opacity="1.000000" stroke="none" 
	d="
M351.140442,517.076538 
	C352.358917,515.925476 353.572479,514.619080 354.788971,514.616394 
	C355.520691,514.614746 357.083160,516.955444 356.806000,517.691467 
	C356.339142,518.931396 354.706238,519.732178 353.563751,520.717651 
	C352.754761,519.635193 351.945770,518.552734 351.140442,517.076538 
z"/>
<path fill="#FE8202" opacity="1.000000" stroke="none" 
	d="
M570.541504,516.282227 
	C571.222229,514.935425 571.551086,513.433411 572.388245,513.054504 
	C573.287109,512.647583 575.674683,513.258850 575.683167,513.489319 
	C575.875977,518.742065 575.831665,524.003540 575.207581,529.317444 
	C572.845276,525.242188 576.017334,519.344971 570.541504,516.282227 
z"/>
<path fill="#FE8202" opacity="1.000000" stroke="none" 
	d="
M558.545410,516.979980 
	C557.646484,518.966309 556.423584,520.516357 556.117371,522.230164 
	C555.710022,524.509827 556.016846,526.917114 556.016846,529.269531 
	C555.522827,529.259949 555.028809,529.250305 554.534790,529.240662 
	C554.534790,523.707214 554.534790,518.173767 554.534790,512.640320 
	C554.926636,512.374451 555.318420,512.108582 555.710266,511.842712 
	C556.683350,513.434021 557.656433,515.025391 558.545410,516.979980 
z"/>
<path fill="#3D1B09" opacity="1.000000" stroke="none" 
	d="
M644.881287,514.155640 
	C646.488098,515.368652 647.694641,516.601257 648.901123,517.833862 
	C647.463196,519.018921 646.025269,520.203979 644.587280,521.389038 
	C643.985657,521.022888 643.383972,520.656799 642.782288,520.290649 
	C643.348572,518.252197 643.914795,516.213684 644.881287,514.155640 
z"/>
<path fill="#471C02" opacity="1.000000" stroke="none" 
	d="
M379.665314,520.790222 
	C380.316101,519.113892 380.838470,517.787415 381.796356,515.354980 
	C382.910950,518.665894 383.676910,520.941101 384.697418,523.972595 
	C382.314667,523.158813 378.946472,526.259094 379.665314,520.790222 
z"/>
<path fill="#471C02" opacity="1.000000" stroke="none" 
	d="
M616.760559,521.587769 
	C617.402161,519.707458 617.947083,518.184753 619.036316,515.140930 
	C620.234741,518.636841 620.982910,520.819336 621.731079,523.001831 
	C621.465210,523.441223 621.199341,523.880615 620.933533,524.320007 
	C619.510315,523.528442 618.087097,522.736938 616.760559,521.587769 
z"/>
<path fill="#331308" opacity="1.000000" stroke="none" 
	d="
M312.769470,514.193481 
	C314.114807,515.828064 315.049408,517.428894 315.984009,519.029785 
	C314.301971,519.831421 312.619934,520.633057 310.937897,521.434692 
	C310.398285,520.934509 309.858704,520.434387 309.319092,519.934204 
	C310.332275,518.009399 311.345490,516.084595 312.769470,514.193481 
z"/>
<path fill="#331308" opacity="1.000000" stroke="none" 
	d="
M597.011963,515.047119 
	C598.594238,520.276062 598.115601,520.852600 592.365723,520.801575 
	C592.365723,518.772949 592.365723,516.735107 592.365723,514.085815 
	C593.932739,514.348511 595.305603,514.578735 597.011963,515.047119 
z"/>
<path fill="#FE8202" opacity="1.000000" stroke="none" 
	d="
M239.944962,525.622375 
	C239.944260,521.020691 239.944260,516.865173 239.944260,512.709717 
	C240.459167,512.724670 240.974075,512.739685 241.488983,512.754639 
	C241.488983,518.246277 241.488983,523.737854 241.488983,529.229431 
	C241.187958,529.282288 240.886932,529.335083 240.585907,529.387939 
	C240.372498,528.281494 240.159088,527.175049 239.944962,525.622375 
z"/>
<path fill="#FE8202" opacity="1.000000" stroke="none" 
	d="
M331.981995,526.497681 
	C331.978607,521.635376 331.978607,517.213379 331.978607,512.791382 
	C332.426544,512.780945 332.874512,512.770508 333.322449,512.760132 
	C333.322449,518.243042 333.322449,523.726013 333.322449,529.208923 
	C333.108276,529.265686 332.894135,529.322449 332.679962,529.379211 
	C332.448425,528.565430 332.216919,527.751709 331.981995,526.497681 
z"/>
</svg>